<svg width="96" height="96" xmlns="http://www.w3.org/2000/svg" xmlns:xlink="http://www.w3.org/1999/xlink" xml:space="preserve" overflow="hidden"><g transform="translate(-891 -696)"><path d="M939 780C919.118 780 903 763.882 903 744 903 724.118 919.118 708 939 708 958.882 708 975 724.118 975 744 974.979 763.874 958.874 779.979 939 780M939 782C959.987 782 977 764.987 977 744 977 723.013 959.987 706 939 706 918.013 706 901 723.013 901 744 901 764.987 918.013 782 939 782Z"/><path d="M914.292 744.707 929.292 759.707C929.689 760.091 930.322 760.08 930.706 759.682 931.08 759.295 931.08 758.68 930.706 758.293L917.43 745.017C917.421 745.008 917.424 745 917.437 745L963.666 745C964.218 745 964.666 744.552 964.666 744 964.666 743.448 964.218 743 963.666 743L917.437 743C917.432 743 917.427 742.995 917.427 742.99 917.427 742.987 917.428 742.985 917.43 742.983L930.706 729.707C931.103 729.323 931.114 728.69 930.731 728.293 930.347 727.896 929.714 727.885 929.317 728.268 929.308 728.276 929.3 728.285 929.292 728.293L914.292 743.293C913.902 743.683 913.902 744.317 914.292 744.707Z"/></g></svg>