<svg width="17" height="16" xmlns="http://www.w3.org/2000/svg" xmlns:xlink="http://www.w3.org/1999/xlink" xml:space="preserve" overflow="hidden"><g transform="translate(-912 -543)"><path d="M4.83333 4.33333C5.11667 4.33333 5.33333 4.11667 5.33333 3.83333L5.33333 2.83333C5.33333 2.55 5.11667 2.33333 4.83333 2.33333 4.55 2.33333 4.33333 2.55 4.33333 2.83333L4.33333 3.83333C4.33333 4.11667 4.55 4.33333 4.83333 4.33333Z" transform="matrix(-1.0625 0 0 1 929 543)"/><path d="M3.33333 7.33333 12.6667 7.33333 12.6667 12.6667 3.33333 12.6667 3.33333 7.33333ZM2.33333 13.6667 13.6667 13.6667 13.6667 6.33333 2.33333 6.33333 2.33333 13.6667Z" transform="matrix(-1.0625 0 0 1 929 543)"/><path d="M11.1667 4.33333C11.45 4.33333 11.6667 4.11667 11.6667 3.83333L11.6667 2.83333C11.6667 2.55 11.45 2.33333 11.1667 2.33333 10.8833 2.33333 10.6667 2.55 10.6667 2.83333L10.6667 3.83333C10.6667 4.11667 10.8833 4.33333 11.1667 4.33333Z" transform="matrix(-1.0625 0 0 1 929 543)"/><path d="M12.3333 3.33333 12.3333 3.83333C12.3333 4.48333 11.8167 5 11.1667 5 10.5167 5 10 4.48333 10 3.83333L10 3.33333 6 3.33333 6 3.83333C6 4.48333 5.48333 5 4.83333 5 4.18333 5 3.66667 4.48333 3.66667 3.83333L3.66667 3.33333 2.33333 3.33333 2.33333 5.66667 13.6667 5.66667 13.6667 3.33333 12.3333 3.33333Z" transform="matrix(-1.0625 0 0 1 929 543)"/></g></svg>