<svg width="33" height="32" xmlns="http://www.w3.org/2000/svg" xmlns:xlink="http://www.w3.org/1999/xlink" xml:space="preserve" overflow="hidden"><g transform="translate(-114 -289)"><path d="M14.982 20 17.022 20 17.6687 18 14.3353 18 14.982 20Z" fill="#FFFFFF" transform="matrix(1.03125 0 0 1 114 289)"/><path d="M15.032 20.6667 14.5787 27.2433 16.002 28.6667 17.4253 27.2433 16.972 20.6667 15.032 20.6667Z" fill="#FFFFFF" transform="matrix(1.03125 0 0 1 114 289)"/><path d="M26.6667 21.6533C26.6479 20.6754 26.191 19.7577 25.422 19.1533 24.1767 18.134 22.713 17.5047 21.1767 16.9553L19.5417 16.2843C19.4166 16.233 19.335 16.1112 19.335 15.976L19.335 15.158C20.5694 14.1701 21.3005 12.6844 21.3303 11.1037L22.1797 9.64667C22.3068 9.3463 22.3579 9.01917 22.3283 8.69433 22.1351 6.5098 20.8103 4.58663 18.838 3.62767 18.6791 3.55313 18.4925 3.5698 18.3493 3.67133L18.0127 3.90467 17.6403 3.39567C17.5257 3.23512 17.3533 3.12531 17.1593 3.08933 16.8125 3.02949 16.4612 2.9996 16.1093 3 13.1071 3.00038 10.5299 5.13663 9.97267 8.08667L9.95933 8.15933C9.7975 9.02493 9.46233 9.84887 8.974 10.5817L10.67 10.5817 10.67 11C10.6701 12.6165 11.4047 14.1454 12.6667 15.1557L12.6667 15.9743C12.6667 16.1095 12.585 16.2313 12.46 16.2827L10.8267 16.9523C9.28933 17.502 7.82667 18.1303 6.58867 19.1427 5.81103 19.7515 5.35037 20.6792 5.33533 21.6667L5.33533 27.5 5.602 27.7C7.06367 28.7963 10.9293 29.1497 13.102 29.2627L13.8863 29.3033 12.589 17.67 12.966 17.5153C13.5922 17.2601 14.0012 16.6506 14 15.9743L14 15.941C15.2826 16.4648 16.7194 16.4648 18.002 15.941L18.002 15.9743C18.0004 16.6507 18.4091 17.2604 19.0353 17.516L19.4123 17.6707 18.1147 29.304 18.8987 29.2633C21.073 29.1503 24.9387 28.7967 26.4007 27.7007L26.6673 27.5007ZM12.0033 11 12.0033 10.5817 14.3263 10.5817C17.753 10.5817 17.287 7.85067 18.7863 7.45967 19.1984 7.38293 19.6241 7.43773 20.0033 7.61633L20.0033 11C20.0033 13.2091 18.2125 15 16.0033 15 13.7942 15 12.0033 13.2091 12.0033 11ZM24.0017 23.3333 21.0017 23.3333 21.0017 22.6667 24.0017 22.6667Z" fill="#FFFFFF" transform="matrix(1.03125 0 0 1 114 289)"/></g></svg>