<svg width="32" height="32" xmlns="http://www.w3.org/2000/svg" xmlns:xlink="http://www.w3.org/1999/xlink" xml:space="preserve" overflow="hidden"><g transform="translate(-114 -236)"><path d="M141.333 257.333 118.667 257.333 118.667 242.667 141.333 242.667 141.333 257.333ZM142 240.667 118 240.667C117.267 240.667 116.667 241.267 116.667 242L116.667 258C116.667 258.733 117.267 259.333 118 259.333L127.333 259.333 127.333 261.333 124 261.333 124 263.333 136 263.333 136 261.333 132.667 261.333 132.667 259.333 142 259.333C142.733 259.333 143.333 258.733 143.333 258L143.333 242C143.333 241.267 142.733 240.667 142 240.667Z" fill="#FFFFFF"/></g></svg>