<svg width="96" height="96" xmlns="http://www.w3.org/2000/svg" xmlns:xlink="http://www.w3.org/1999/xlink" xml:space="preserve" overflow="hidden"><g transform="translate(-891 -696)"><path d="M975 744C975 763.882 958.882 780 939 780 919.118 780 903 763.882 903 744 903 724.118 919.118 708 939 708 958.874 708.021 974.979 724.126 975 744M977 744C977 723.013 959.987 706 939 706 918.013 706 901 723.013 901 744 901 764.987 918.013 782 939 782 959.987 782 977 764.987 977 744Z"/><path d="M939.707 768.708 954.707 753.708C955.091 753.311 955.08 752.678 954.682 752.294 954.295 751.92 953.68 751.92 953.293 752.294L940.017 765.57C940.008 765.579 940 765.576 940 765.563L940 719.334C940 718.782 939.552 718.334 939 718.334 938.448 718.334 938 718.782 938 719.334L938 765.563C938 765.568 937.995 765.573 937.99 765.573 937.987 765.573 937.985 765.572 937.983 765.57L924.707 752.294C924.323 751.897 923.69 751.886 923.293 752.269 922.896 752.653 922.885 753.286 923.268 753.683 923.276 753.692 923.285 753.7 923.293 753.708L938.293 768.708C938.683 769.098 939.317 769.098 939.707 768.708Z"/></g></svg>