<svg width="121" height="121" xmlns="http://www.w3.org/2000/svg" xmlns:xlink="http://www.w3.org/1999/xlink" xml:space="preserve" overflow="hidden"><g transform="translate(-792 -352)"><path d="M833.594 390.821C833.594 397.086 828.515 402.165 822.25 402.165 815.985 402.165 810.906 397.086 810.906 390.821 810.906 384.556 815.985 379.477 822.25 379.477 828.515 379.477 833.594 384.556 833.594 390.821Z"/><path d="M894.094 390.821C894.094 397.086 889.015 402.165 882.75 402.165 876.485 402.165 871.406 397.086 871.406 390.821 871.406 384.556 876.485 379.477 882.75 379.477 889.015 379.477 894.094 384.556 894.094 390.821Z"/><path d="M875.188 445.523 875.188 434.179C875.188 432.415 874.431 430.65 872.919 429.642 869.894 427.121 865.86 425.356 861.827 424.348 859.054 423.592 855.777 422.835 852.5 422.835 849.475 422.835 846.198 423.34 843.173 424.348 839.14 425.356 835.358 427.373 832.081 429.642 830.569 430.902 829.812 432.415 829.812 434.179L829.812 445.523 875.188 445.523Z"/><path d="M863.844 408.467C863.844 414.732 858.765 419.81 852.5 419.81 846.235 419.81 841.156 414.732 841.156 408.467 841.156 402.202 846.235 397.123 852.5 397.123 858.765 397.123 863.844 402.202 863.844 408.467Z"/><path d="M903.169 411.996C900.144 409.475 896.11 407.71 892.077 406.702 889.304 405.946 886.027 405.19 882.75 405.19 879.725 405.19 876.448 405.694 873.423 406.702 871.91 407.206 870.398 407.71 868.885 408.467L868.885 408.719C868.885 413.004 867.121 417.038 864.348 419.81 869.138 421.323 872.919 423.34 875.944 425.608 876.7 426.365 877.456 426.869 877.96 427.877L905.438 427.877 905.438 416.533C905.438 414.769 904.681 413.004 903.169 411.996Z"/><path d="M829.056 425.608 829.056 425.608C832.585 423.087 836.619 421.071 840.652 419.81 837.879 416.785 836.115 413.004 836.115 408.719 836.115 408.467 836.115 408.467 836.115 408.215 834.602 407.71 833.09 406.954 831.577 406.702 828.804 405.946 825.527 405.19 822.25 405.19 819.225 405.19 815.948 405.694 812.923 406.702 808.89 407.962 805.108 409.727 801.831 411.996 800.319 413.004 799.562 414.769 799.562 416.533L799.562 427.877 826.787 427.877C827.544 426.869 828.048 426.365 829.056 425.608Z"/></g></svg>