<svg width="96" height="96" xmlns="http://www.w3.org/2000/svg" xmlns:xlink="http://www.w3.org/1999/xlink" xml:space="preserve" overflow="hidden"><g transform="translate(-806 -490)"><path d="M839 520.8C839 525.771 834.971 529.8 830 529.8 825.029 529.8 821 525.771 821 520.8 821 515.829 825.029 511.8 830 511.8 834.971 511.8 839 515.829 839 520.8Z"/><path d="M887 520.8C887 525.771 882.971 529.8 878 529.8 873.029 529.8 869 525.771 869 520.8 869 515.829 873.029 511.8 878 511.8 882.971 511.8 887 515.829 887 520.8Z"/><path d="M872 564.2 872 555.2C872 553.8 871.4 552.4 870.2 551.6 867.8 549.6 864.6 548.2 861.4 547.4 859.2 546.8 856.6 546.2 854 546.2 851.6 546.2 849 546.6 846.6 547.4 843.4 548.2 840.4 549.8 837.8 551.6 836.6 552.6 836 553.8 836 555.2L836 564.2 872 564.2Z"/><path d="M863 534.8C863 539.771 858.971 543.8 854 543.8 849.029 543.8 845 539.771 845 534.8 845 529.829 849.029 525.8 854 525.8 858.971 525.8 863 529.829 863 534.8Z"/><path d="M894.2 537.6C891.8 535.6 888.6 534.2 885.4 533.4 883.2 532.8 880.6 532.2 878 532.2 875.6 532.2 873 532.6 870.6 533.4 869.4 533.8 868.2 534.2 867 534.8L867 535C867 538.4 865.6 541.6 863.4 543.8 867.2 545 870.2 546.6 872.6 548.4 873.2 549 873.8 549.4 874.2 550.2L896 550.2 896 541.2C896 539.8 895.4 538.4 894.2 537.6Z"/><path d="M835.4 548.4 835.4 548.4C838.2 546.4 841.4 544.8 844.6 543.8 842.4 541.4 841 538.4 841 535 841 534.8 841 534.8 841 534.6 839.8 534.2 838.6 533.6 837.4 533.4 835.2 532.8 832.6 532.2 830 532.2 827.6 532.2 825 532.6 822.6 533.4 819.4 534.4 816.4 535.8 813.8 537.6 812.6 538.4 812 539.8 812 541.2L812 550.2 833.6 550.2C834.2 549.4 834.6 549 835.4 548.4Z"/></g></svg>