<svg width="96" height="96" xmlns="http://www.w3.org/2000/svg" xmlns:xlink="http://www.w3.org/1999/xlink" xml:space="preserve" overflow="hidden"><g transform="translate(-1022 -311)"><path d="M1103 333C1102.99 330.794 1101.21 329.007 1099 329L1081 329 1081 326C1081 323.24 1078.76 321.003 1076 321L1064 321C1061.24 321.003 1059 323.24 1059 326L1059 329 1041 329C1038.79 329.007 1037.01 330.794 1037 333L1037 339 1041.05 339 1043.81 393.254C1043.94 395.912 1046.14 397.999 1048.8 398L1091.2 398C1093.86 398 1096.06 395.913 1096.19 393.254L1098.95 339 1103 339ZM1061 326C1061 324.343 1062.34 323 1064 323L1076 323C1077.66 323 1079 324.343 1079 326L1079 329 1061 329ZM1094.19 393.152C1094.11 394.747 1092.8 395.999 1091.2 396L1048.8 396C1047.2 396.002 1045.88 394.749 1045.8 393.152L1043.05 339 1096.95 339ZM1101 337 1039 337 1039 333C1039 331.895 1039.9 331 1041 331L1099 331C1100.1 331 1101 331.895 1101 333Z"/><path d="M1058 389 1058.05 389C1058.6 388.973 1059.03 388.504 1059 387.952 1059 387.952 1059 387.952 1059 387.951L1057 346.951C1056.97 346.399 1056.5 345.973 1055.95 346.001 1055.4 346.029 1054.97 346.499 1055 347.051L1057 388.051C1057.03 388.583 1057.47 389.001 1058 389Z"/><path d="M1070 389C1070.55 389 1071 388.552 1071 388L1071 347C1071 346.448 1070.55 346 1070 346 1069.45 346 1069 346.448 1069 347L1069 388C1069 388.552 1069.45 389 1070 389Z"/><path d="M1081.95 389 1082 389C1082.53 389.001 1082.97 388.582 1083 388.049L1085 347.049C1085.03 346.497 1084.6 346.027 1084.05 345.999 1083.5 345.971 1083.03 346.397 1083 346.949L1081 387.949C1080.97 388.5 1081.4 388.971 1081.95 389 1081.95 389 1081.95 389 1081.95 389Z"/></g></svg>