<svg width="32" height="32" xmlns="http://www.w3.org/2000/svg" xmlns:xlink="http://www.w3.org/1999/xlink" xml:space="preserve" overflow="hidden"><g transform="translate(-114 -460)"><path d="M130 463.333C123 463.333 117.333 469 117.333 476 117.333 483 123 488.667 130 488.667 137 488.667 142.667 483 142.667 476 142.667 469 137 463.333 130 463.333ZM130 485.333C129.067 485.333 128.333 484.6 128.333 483.667 128.333 482.733 129.067 482 130 482 130.933 482 131.667 482.733 131.667 483.667 131.667 484.6 130.933 485.333 130 485.333ZM131 477.6C131 478.467 131 480.667 131 480.667L129 480.667 129 475.667 130 475.667C132.233 475.667 133.667 474.367 133.667 472.333 133.667 470.233 132.1 468.667 130 468.667 127.7 468.667 126.333 470.033 126.333 472.333L124.333 472.333C124.333 468.933 126.6 466.667 130 466.667 133.167 466.667 135.667 469.167 135.667 472.333 135.667 475.167 133.8 477.2 131 477.6Z" fill="#FFFFFF"/></g></svg>