<svg width="96" height="96" xmlns="http://www.w3.org/2000/svg" xmlns:xlink="http://www.w3.org/1999/xlink" xml:space="preserve" overflow="hidden"><g transform="translate(-559 -504)"><path d="M609 573.2 609 578.5 605 578.5 605 573.2C602.7 572.4 601 570.2 601 567.5 601 564.2 603.7 561.5 607 561.5 610.3 561.5 613 564.2 613 567.5 613 570.1 611.3 572.3 609 573.2ZM592 536.5C592 528.2 598.7 521.5 607 521.5 615.3 521.5 622 528.2 622 536.5L622 547.6 607 546.5 592 547.6 592 536.5ZM628 548 628 536.5C628 524.9 618.6 515.5 607 515.5 595.4 515.5 586 524.9 586 536.5L586 548 579 548.5 579 586.5 607 588.5 635 586.5 635 548.5 628 548Z"/></g></svg>