<svg width="28" height="28" xmlns="http://www.w3.org/2000/svg" xmlns:xlink="http://www.w3.org/1999/xlink" xml:space="preserve" overflow="hidden"><g transform="translate(-116 -406)"><path d="M142.629 415.917 141.521 414.808C141.258 414.546 140.879 414.546 140.617 414.779 140.383 415.013 140.004 415.042 139.742 414.808 139.479 414.546 139.479 414.108 139.742 413.846 139.975 413.583 139.946 413.204 139.712 412.971L137 410.288C135.367 408.654 132.1 408.1 128.892 408.975 128.863 408.975 128.833 409.004 128.804 409.004 128.688 409.092 128.6 409.208 128.629 409.354 128.658 409.5 128.746 409.617 128.892 409.675 129.3 409.821 130.058 410.054 130.058 410.054 131.837 410.667 133.617 413 133.85 413.467L125.421 421.837 125.188 421.604C124.925 421.342 124.517 421.342 124.283 421.604L117.517 428.4 117.546 428.429C116.992 429.188 117.079 430.208 117.75 430.879 118.421 431.521 119.442 431.638 120.2 431.083L120.229 431.112 127.025 424.317C127.287 424.054 127.287 423.646 127.025 423.413L126.792 423.179 135.163 414.808 136.504 416.15C136.767 416.413 137.146 416.413 137.408 416.179 137.642 415.946 138.021 415.917 138.283 416.15 138.546 416.413 138.546 416.85 138.283 417.112 138.05 417.375 138.079 417.754 138.312 417.987L139.45 419.096C139.712 419.358 140.121 419.358 140.383 419.096L142.629 416.85C142.746 416.733 142.833 416.558 142.833 416.383 142.833 416.208 142.775 416.033 142.629 415.917Z" fill="#FFFFFF"/></g></svg>