<svg width="96" height="96" xmlns="http://www.w3.org/2000/svg" xmlns:xlink="http://www.w3.org/1999/xlink" xml:space="preserve" overflow="hidden"><g transform="translate(-919 -360)"><path d="M983 390C983 398.837 975.837 406 967 406 958.163 406 951 398.837 951 390 951 381.163 958.163 374 967 374 975.837 374 983 381.163 983 390Z"/><path d="M999 442 999 426C999 423.6 997.8 421.2 995.8 419.6 991.4 416 985.8 413.6 980.2 412 976.2 410.8 971.8 410 967 410 962.6 410 958.2 410.8 953.8 412 948.2 413.6 942.6 416.4 938.2 419.6 936.2 421.2 935 423.6 935 426L935 442 999 442Z"/></g></svg>