<svg width="96" height="96" xmlns="http://www.w3.org/2000/svg" xmlns:xlink="http://www.w3.org/1999/xlink" xml:space="preserve" overflow="hidden"><g transform="translate(-693 -369)"><path d="M743 438.2 743 443.5 739 443.5 739 438.2C736.7 437.4 735 435.2 735 432.5 735 429.2 737.7 426.5 741 426.5 744.3 426.5 747 429.2 747 432.5 747 435.1 745.3 437.3 743 438.2ZM726 401.5C726 393.2 732.7 386.5 741 386.5 749.3 386.5 756 393.2 756 401.5L756 412.6 741 411.5 726 412.6 726 401.5ZM762 413 762 401.5C762 389.9 752.6 380.5 741 380.5 729.4 380.5 720 389.9 720 401.5L720 413 713 413.5 713 451.5 741 453.5 769 451.5 769 413.5 762 413Z" fill="#BFBFBF"/></g></svg>