<svg width="32" height="31" xmlns="http://www.w3.org/2000/svg" xmlns:xlink="http://www.w3.org/1999/xlink" xml:space="preserve" overflow="hidden"><g transform="translate(-115 -348)"><path d="M9.33229 11.9479 25.5104 11.9479 25.5104 10.3333C25.5104 9.62292 24.9292 9.04167 24.2188 9.04167L14.5312 9.04167 10.9792 6.68437C10.7531 6.55521 10.5271 6.45833 10.2687 6.45833L4.19792 6.45833C3.4875 6.45833 2.90625 7.03958 2.90625 7.75L2.90625 23.5729C2.90625 23.6375 7.07187 13.4656 7.07187 13.4656 7.45937 12.5615 8.33125 11.9479 9.33229 11.9479Z" fill="#FFFFFF" transform="matrix(1.03226 0 0 1 115 348)"/><path d="M28.0938 14.5312C28.0938 13.8531 27.6094 13.3042 26.9312 13.2396L9.33229 13.2396C8.84792 13.2396 8.42812 13.5302 8.23438 13.95L3.875 24.5417 23.5729 24.5417 27.9646 15.1125C28.0615 14.9187 28.0938 14.725 28.0938 14.5312L28.0938 14.5312Z" fill="#FFFFFF" transform="matrix(1.03226 0 0 1 115 348)"/></g></svg>