<svg width="96" height="96" xmlns="http://www.w3.org/2000/svg" xmlns:xlink="http://www.w3.org/1999/xlink" xml:space="preserve" overflow="hidden"><g transform="translate(-674 -509)"><path d="M722 555 707 556.1 707 538C707 529.7 713.7 523 722 523 730.3 523 737 529.7 737 538L737 544 743 544 743 538C743 526.4 733.6 517 722 517 710.4 517 701 526.4 701 538L701 556.5 694 557 694 595 722 597 750 595 750 557 722 555ZM724 581.7 724 587 720 587 720 581.7C717.7 580.9 716 578.7 716 576 716 572.7 718.7 570 722 570 725.3 570 728 572.7 728 576 728 578.6 726.3 580.8 724 581.7Z"/></g></svg>