<svg width="96" height="96" xmlns="http://www.w3.org/2000/svg" xmlns:xlink="http://www.w3.org/1999/xlink" xml:space="preserve" overflow="hidden"><g transform="translate(-709 -384)"><path d="M754 404C755.933 404 757.5 402.433 757.5 400.5 757.5 398.567 755.933 397 754 397L753.9 397C751.997 397.034 750.479 398.597 750.5 400.5 750.503 402.432 752.068 403.997 754 404ZM753.934 399 754 399C754.828 399 755.5 399.672 755.5 400.5 755.5 401.328 754.828 402 754 402 753.171 402 752.5 401.328 752.5 400.5 752.5 400.495 752.5 400.491 752.5 400.486 752.487 399.68 753.128 399.016 753.934 399Z"/><path d="M754 436.482 754 436 732 436 732 438 752.485 438 754 436.482Z"/><path d="M732 450 748.177 450 748.841 448 732 448 732 450Z"/><path d="M766.457 424 732 424 732 426 764.461 426 766.457 424Z"/><path d="M792.241 405.689C791.359 404.784 789.909 404.766 789.004 405.648 789.003 405.649 789.001 405.651 789 405.652L788.963 405.689 754.624 440.1 751 451.02 761.97 447.4 796.262 412.982C797.165 412.189 797.254 410.815 796.462 409.912ZM754.435 447.021 756.2 441.7C757.452 440.622 759.34 440.763 760.418 442.015 761.336 443.081 761.387 444.643 760.54 445.767L755.004 447.594ZM761.685 440.433C760.843 439.597 759.728 439.091 758.544 439.007L785.044 412.452 789.513 416.922 763.1 443.435C762.987 442.302 762.487 441.242 761.685 440.433ZM794.94 411.481 794.891 411.524 794.845 411.571 790.925 415.505 786.456 411.037 790.4 407.082C790.453 407.029 790.525 407 790.6 407 790.685 407 790.766 407.037 790.822 407.1L794.969 411.253C795.017 411.326 795.005 411.423 794.94 411.481Z"/><path d="M784 429.541 782 431.548 782 468C782 469.105 781.105 470 780 470L728 470C726.895 470 726 469.105 726 468L726 402.979C726 401.874 726.895 400.979 728 400.979L739 400.979 739 411 769 411 769 400.979 780 400.979C781.105 400.979 782 401.874 782 402.979L782 408.428 784 406.428 784 402.979C784 400.77 782.209 398.979 780 398.979L765 398.979 765 396.979C764.996 394.219 762.76 391.983 760 391.979L748 391.979C745.24 391.982 743.003 394.219 743 396.979L743 398.979 728 398.979C725.792 398.982 724.003 400.771 724 402.979L724 468C724 470.209 725.791 472 728 472L780 472C782.209 472 784 470.209 784 468ZM741 400.979 745 400.979 745 396.979C745 395.322 746.343 393.979 748 393.979L760 393.979C761.657 393.979 763 395.322 763 396.979L763 400.979 767 400.979 767 409 741 409Z"/></g></svg>