<svg width="20" height="20" xmlns="http://www.w3.org/2000/svg" xmlns:xlink="http://www.w3.org/1999/xlink" xml:space="preserve" overflow="hidden"><g transform="translate(-537 -386)"><path d="M550.333 392.25C550.333 394.091 548.841 395.583 547 395.583 545.159 395.583 543.667 394.091 543.667 392.25 543.667 390.409 545.159 388.917 547 388.917 548.841 388.917 550.333 390.409 550.333 392.25Z"/><path d="M553.667 403.083 553.667 399.75C553.667 399.25 553.417 398.75 553 398.417 552.083 397.667 550.917 397.167 549.75 396.833 548.917 396.583 548 396.417 547 396.417 546.083 396.417 545.167 396.583 544.25 396.833 543.083 397.167 541.917 397.75 541 398.417 540.583 398.75 540.333 399.25 540.333 399.75L540.333 403.083 553.667 403.083Z"/></g></svg>